<?xml version="1.0" encoding="UTF-8"?>
<svg version="1.1" xmlns="http://www.w3.org/2000/svg" width="170" height="170">
<path d="M0 0 C1.03576172 0.48210938 2.07152344 0.96421875 3.13867188 1.4609375 C4.13060547 1.9353125 5.12253906 2.4096875 6.14453125 2.8984375 C7.48994995 3.53918213 7.48994995 3.53918213 8.86254883 4.19287109 C11.38790095 5.74844345 12.66628697 7.09362799 14.1875 9.625 C14.69061231 13.07491297 14.72109582 14.83620618 12.75 17.75 C5.83403236 22.81046413 -1.1448746 24.28304335 -9.5625 24.8125 C-10.52534912 24.88726562 -11.48819824 24.96203125 -12.48022461 25.0390625 C-16.63702637 25.3575004 -20.79688028 25.62428317 -24.95703125 25.89453125 C-26.64892578 26.00861328 -26.64892578 26.00861328 -28.375 26.125 C-29.32503906 26.1765625 -30.27507812 26.228125 -31.25390625 26.28125 C-34.8099399 26.75900719 -37.86967812 27.46790042 -40.1875 30.3125 C-41.11088543 33.72902609 -40.67953481 36.21879183 -39.8125 39.625 C-37.60464703 42.1599423 -36.38300197 42.57783489 -33.03955078 42.85424805 C-29.37764601 42.59410819 -27.14113558 41.66017858 -23.8671875 40.01953125 C-22.72072754 39.45371338 -21.57426758 38.88789551 -20.39306641 38.30493164 C-19.78924133 38.0004007 -19.18541626 37.69586975 -18.56329346 37.3821106 C-16.66313345 36.42522951 -14.75569371 35.48467708 -12.84521484 34.54858398 C-10.18069072 33.24263576 -7.51808827 31.93293124 -4.85742188 30.61914062 C0.99346156 27.73283643 6.85044442 24.86168206 12.74212646 22.05941772 C14.52999606 21.20306865 16.30833795 20.32691825 18.08642578 19.45043945 C28.22776799 14.63842266 28.22776799 14.63842266 34.1875 16.625 C36.70621423 17.65464605 39.03457376 18.69702834 41.4375 19.9375 C42.35402344 20.38125977 42.35402344 20.38125977 43.2890625 20.83398438 C46.88322749 22.65068567 49.06080767 24.22687137 51.1875 27.625 C52.07885742 30.35473633 52.07885742 30.35473633 52.79296875 33.45703125 C53.05400391 34.58560547 53.31503906 35.71417969 53.58398438 36.87695312 C53.84501953 38.05193359 54.10605469 39.22691406 54.375 40.4375 C54.64763672 41.60087891 54.92027344 42.76425781 55.20117188 43.96289062 C57.72961788 55.09692477 57.72961788 55.09692477 57.1875 60.625 C55.5625 63.0625 55.5625 63.0625 53.1875 64.625 C46.2951639 65.22640883 41.74455148 62.43037221 36.1875 58.625 C29.29688351 52.61574144 23.36290644 45.60077303 17.49609375 38.609375 C16.69365234 37.65804687 16.69365234 37.65804687 15.875 36.6875 C15.16923828 35.83865234 15.16923828 35.83865234 14.44921875 34.97265625 C12.2993682 32.67637625 11.00835126 32.60841215 7.8125 32.3125 C4.2172535 32.33918797 4.2172535 32.33918797 1.75 34.1875 C-0.41646028 37.56717804 -0.37538002 39.68483987 0.1875 43.625 C2.77982417 46.70482605 5.42982564 48.49028178 9.01953125 50.25390625 C9.9719873 50.72626709 10.92444336 51.19862793 11.90576172 51.68530273 C12.92686035 52.18102783 13.94795898 52.67675293 15 53.1875 C16.05719238 53.70836182 17.11438477 54.22922363 18.20361328 54.76586914 C27.44094428 59.30233979 36.72499588 63.74272978 46.0234375 68.15234375 C47.29912598 68.76360107 47.29912598 68.76360107 48.60058594 69.38720703 C50.3963032 70.24642622 52.19681234 71.09567377 54.00097656 71.93701172 C54.90041992 72.36643066 55.79986328 72.79584961 56.7265625 73.23828125 C57.94013428 73.80929565 57.94013428 73.80929565 59.17822266 74.3918457 C62.53868529 76.45426329 63.19899864 78.91811991 64.1875 82.625 C64.38730469 83.32882813 64.58710938 84.03265625 64.79296875 84.7578125 C65.38492715 87.03824284 65.80093008 89.30163586 66.1875 91.625 C66.35507813 92.31207031 66.52265625 92.99914062 66.6953125 93.70703125 C67.32314942 98.04554536 66.45729313 100.20997151 64.046875 103.91796875 C61.70569043 107.00916715 59.20176236 109.95008311 56.66259766 112.87939453 C55.27351435 114.52321209 53.97686846 116.20243313 52.69921875 117.93359375 C51.95285156 118.92488281 51.20648438 119.91617188 50.4375 120.9375 C49.78265625 121.82050781 49.1278125 122.70351562 48.453125 123.61328125 C45.38877312 126.33421438 43.24269557 126.60226908 39.1875 126.625 C36.21736286 125.22229658 35.4082955 124.13434413 34.10546875 121.12890625 C31.8088503 111.88102554 32.43443426 104.27032491 33.93359375 94.9609375 C34.06685059 94.13279541 34.20010742 93.30465332 34.33740234 92.45141602 C34.60515318 90.8200371 34.88227692 89.19015847 35.17041016 87.56225586 C36.58037075 79.61575676 36.58037075 79.61575676 36.1875 71.625 C34.15302105 68.98675492 33.1317516 68.60848196 29.8125 67.625 C26.0946175 67.28498045 26.0946175 67.28498045 23.25 69.625 C20.28834889 73.93285617 20.77572912 77.32371842 21.66137695 82.27337646 C22.33724144 85.4611251 23.06694871 88.63251894 23.8125 91.8046875 C24.35945303 94.20180511 24.90632554 96.5989411 25.453125 98.99609375 C26.31934181 102.7511731 27.18877363 106.50548415 28.06054688 110.25927734 C28.90269233 113.89759396 29.7330371 117.53846202 30.5625 121.1796875 C30.82498535 122.29246063 31.0874707 123.40523376 31.35791016 124.55172729 C34.76396452 139.54901755 34.76396452 139.54901755 32.12615967 144.69587708 C30.84471557 146.61143499 29.44836285 148.32289328 27.9375 150.0625 C27.44636719 150.67287109 26.95523438 151.28324219 26.44921875 151.91210938 C23.93161721 154.95672884 21.97203336 157.23304839 18.1875 158.625 C13.62788227 159.02493699 9.06337534 158.99661326 4.48852539 158.99560547 C2.26045327 158.99997948 0.03436267 159.03632311 -2.19335938 159.07421875 C-3.61718076 159.08008754 -5.04101151 159.08405652 -6.46484375 159.0859375 C-7.75382568 159.09415527 -9.04280762 159.10237305 -10.37084961 159.11083984 C-14.38036079 158.54483805 -16.02276017 157.51471066 -18.8125 154.625 C-19.78975843 150.86631374 -19.4458829 148.70732935 -17.48193359 145.35131836 C-11.74488118 137.68841919 -4.90278542 133.66513334 3.375 129.3125 C5.27117306 128.29722052 7.16350084 127.27571487 9.05110168 126.24458313 C10.75262145 125.31774114 12.46428393 124.40958956 14.17651367 123.50268555 C17.35424971 121.52101297 19.70771127 119.42338749 22.1875 116.625 C22.79107856 113.73417636 22.25769969 111.36258263 21.1875 108.625 C19.11586371 106.38199365 19.11586371 106.38199365 16.1875 105.625 C12.4872763 105.81552642 10.65983539 106.2268777 7.80078125 108.63671875 C7.04152344 109.51972656 6.28226562 110.40273437 5.5 111.3125 C4.63890625 112.30894531 3.7778125 113.30539063 2.890625 114.33203125 C-0.36099711 118.25497882 -3.51362975 122.25533399 -6.63110352 126.28540039 C-10.22522467 130.92609524 -13.98250824 135.39964647 -17.8125 139.84643555 C-21.75779138 144.4660932 -25.32852739 149.3064966 -28.83984375 154.26171875 C-31.28072985 157.18594863 -33.22771525 158.41672901 -37.02319336 158.91552734 C-39.59932123 158.96469715 -42.17336829 158.9963006 -44.75 159 C-45.64396484 159.02449219 -46.53792969 159.04898438 -47.45898438 159.07421875 C-51.4693872 159.09208246 -54.07870488 159.04636695 -57.6015625 157.0234375 C-60.3139433 154.08103148 -62.82648 151.05826415 -65.25 147.875 C-65.72937012 147.25246338 -66.20874023 146.62992676 -66.70263672 145.98852539 C-67.64875832 144.75805467 -68.59252635 143.52576993 -69.53369141 142.29150391 C-70.61417388 140.88345249 -71.7167977 139.49243298 -72.82421875 138.10546875 C-77.92130552 131.65080438 -77.92130552 131.65080438 -77.8125 127.625 C-76.5625 124.875 -76.5625 124.875 -74.8125 122.625 C-71.87620235 121.64623412 -69.81869412 121.42798465 -66.75 121.375 C-65.43322266 121.33632813 -65.43322266 121.33632813 -64.08984375 121.296875 C-54.31130592 122.27589428 -45.08851328 126.8164156 -36.11523438 130.57226562 C-30.79555914 132.7248784 -26.57056639 134.35048582 -20.8125 133.625 C-18.24911311 132.14506844 -18.24911311 132.14506844 -16.8125 129.625 C-16.08723582 125.8375093 -16.42669667 124.23124641 -18.49853516 120.97558594 C-22.94391018 116.7974471 -29.71384033 117.92188728 -35.3984375 117.953125 C-36.74217696 117.9425345 -38.08589992 117.9296186 -39.42959595 117.91448975 C-42.96156228 117.88032611 -46.49297643 117.87490525 -50.02508545 117.87640381 C-54.30178105 117.87362744 -58.57832469 117.84073139 -62.85488319 117.80833054 C-66.18584009 117.78310892 -69.51616156 117.76518029 -72.84725952 117.76251221 C-88.4628029 117.7131641 -88.4628029 117.7131641 -92.0703125 114.8046875 C-93.99998214 112.42287769 -95.92313609 110.03896809 -97.8125 107.625 C-98.63041016 106.75101563 -98.63041016 106.75101563 -99.46484375 105.859375 C-101.62871167 103.38980829 -102.79172602 101.61437336 -102.86206055 98.26464844 C-102.12851844 91.49789359 -101.03800801 84.89436836 -99.5625 78.25 C-99.37042969 77.29222656 -99.17835937 76.33445312 -98.98046875 75.34765625 C-97.74800305 69.77443084 -96.61843404 66.15725044 -91.8125 62.625 C-88.5 62.1875 -88.5 62.1875 -84.8125 63.625 C-76.24844286 70.76171428 -73.78157608 81.37090833 -70.8125 91.625 C-70.15336114 93.88408763 -69.49102898 96.14184619 -68.81518555 98.39599609 C-68.40841409 99.75949528 -68.01449539 101.12692153 -67.63598633 102.49853516 C-66.45725444 106.50297984 -65.20117425 109.11650088 -61.8125 111.625 C-58.96278787 112.11180303 -56.51759755 111.61075589 -53.8125 110.625 C-51.56949365 108.55336371 -51.56949365 108.55336371 -50.8125 105.625 C-51.05298923 99.86155119 -53.62720444 96.60338584 -57.0625 92.25 C-57.59681641 91.55519531 -58.13113281 90.86039062 -58.68164062 90.14453125 C-62.99698398 84.56824356 -67.45156143 79.1039013 -71.92993164 73.65820312 C-76.46630872 68.12080294 -80.78014726 62.43429032 -85.03125 56.67578125 C-87.74639567 53.00265965 -87.74639567 53.00265965 -90.8125 49.625 C-91.65116872 41.37809095 -90.12054388 33.19247768 -86.8125 25.625 C-83.94826091 22.51542994 -80.66557903 21.26142533 -76.8125 19.625 C-75.26366147 18.8409904 -73.71977781 18.0471516 -72.1796875 17.24609375 C-70.49603154 16.3907841 -68.81112232 15.53793724 -67.125 14.6875 C-66.31732178 14.27258301 -65.50964355 13.85766602 -64.67749023 13.43017578 C-59.65255989 11.00933106 -56.41087125 10.06550506 -50.8125 11.625 C-48.8125 13.125 -48.8125 13.125 -47.8125 15.625 C-47.72560692 18.72211779 -48.20156427 21.59495585 -48.8125 24.625 C-48.93109375 25.30433594 -49.0496875 25.98367187 -49.171875 26.68359375 C-51.11778842 34.48198921 -56.69395418 40.52764635 -61.44970703 46.80761719 C-67.3853282 54.5305467 -67.3853282 54.5305467 -70.5 63.5625 C-69.66969654 67.26112448 -69.01192148 68.57408879 -65.8125 70.625 C-62.3125 71.29166667 -62.3125 71.29166667 -58.8125 70.625 C-55.19219549 67.76319241 -54.12475466 65.29219843 -53.12084961 60.85009766 C-52.85054428 59.68854156 -52.58023895 58.52698547 -52.30174255 57.33023071 C-52.02556595 56.0791452 -51.74938934 54.82805969 -51.46484375 53.5390625 C-51.16535195 52.23601579 -50.86434795 50.93331581 -50.56190491 49.63095093 C-49.76990053 46.20666262 -48.99402403 42.77894459 -48.22283936 39.34991455 C-46.98862114 33.86866016 -45.73555383 28.39178944 -44.47192574 22.91724777 C-44.03554204 21.01234962 -43.60982202 19.10501864 -43.18431091 17.19766235 C-42.91715775 16.02980194 -42.65000458 14.86194153 -42.37475586 13.65869141 C-42.14477402 12.63595123 -41.91479218 11.61321106 -41.67784119 10.55947876 C-40.17907875 5.47699036 -38.51827741 1.4045703 -33.80859375 -1.35546875 C-33.14988281 -1.69191406 -32.49117188 -2.02835937 -31.8125 -2.375 C-30.89597656 -2.84550781 -29.97945313 -3.31601563 -29.03515625 -3.80078125 C-17.6359761 -9.13381509 -10.77148152 -5.19107543 0 0 Z M-30 47.3125 C-31.40088867 47.96508789 -31.40088867 47.96508789 -32.83007812 48.63085938 C-42.89688302 52.97741192 -42.89688302 52.97741192 -49.30078125 61.26171875 C-49.60431527 62.60579915 -49.87828321 63.95683933 -50.125 65.3125 C-50.27614258 66.02003418 -50.42728516 66.72756836 -50.58300781 67.45654297 C-50.88032773 68.86447798 -51.1656887 70.275001 -51.43798828 71.68798828 C-51.76110554 73.35918274 -52.12482535 75.02243287 -52.49609375 76.68359375 C-53.00796133 79.0028834 -53.49644349 81.27121071 -53.8125 83.625 C-53.96589844 84.52992187 -54.11929688 85.43484375 -54.27734375 86.3671875 C-53.55395566 91.43698303 -50.43644794 94.36033691 -47.125 98.125 C-46.49916016 98.85847656 -45.87332031 99.59195313 -45.22851562 100.34765625 C-44.00233629 101.78312065 -42.76959034 103.21300638 -41.52978516 104.63671875 C-39.97990715 106.43117518 -38.47536471 108.25354021 -36.98046875 110.09375 C-35.06689142 112.65964116 -35.06689142 112.65964116 -32.8125 113.625 C-27.14586403 113.84493793 -21.48131361 113.72831243 -15.8125 113.625 C-15.12285156 113.61774902 -14.43320313 113.61049805 -13.72265625 113.60302734 C-11.83533213 113.57546494 -9.94872936 113.50743435 -8.0625 113.4375 C-6.97453125 113.40269531 -5.8865625 113.36789063 -4.765625 113.33203125 C1.99786338 111.71273046 6.31091212 103.89881355 10.4375 98.625 C11.07429688 97.8309375 11.71109375 97.036875 12.3671875 96.21875 C12.97304687 95.4453125 13.57890625 94.671875 14.203125 93.875 C14.75258789 93.17890625 15.30205078 92.4828125 15.86816406 91.765625 C18.02669387 88.26340639 18.35464413 85.69579173 17.72192383 81.64233398 C16.82889786 78.11160074 15.92976374 74.58377221 15 71.0625 C14.69513672 69.83080078 14.39027344 68.59910156 14.07617188 67.33007812 C13.76873047 66.14736328 13.46128906 64.96464844 13.14453125 63.74609375 C12.86585205 62.6677124 12.58717285 61.58933105 12.30004883 60.47827148 C10.63270805 56.20216623 8.47286417 54.31745675 4.47021484 52.16113281 C3.45652832 51.72124023 2.4428418 51.28134766 1.3984375 50.828125 C0.29242188 50.34472656 -0.81359375 49.86132812 -1.953125 49.36328125 C-3.10296875 48.87214844 -4.2528125 48.38101563 -5.4375 47.875 C-6.59507813 47.36839844 -7.75265625 46.86179687 -8.9453125 46.33984375 C-18.44938733 42.22067113 -20.78099265 42.91804416 -30 47.3125 Z " fill="#EE7C01" transform="translate(102.8125,8.375)"/>
</svg>
