<?xml version="1.0" encoding="UTF-8"?>
<svg version="1.1" xmlns="http://www.w3.org/2000/svg" width="580" height="236">
<path d="M0 0 C1.03576172 0.48210938 2.07152344 0.96421875 3.13867188 1.4609375 C4.13060547 1.9353125 5.12253906 2.4096875 6.14453125 2.8984375 C7.48994995 3.53918213 7.48994995 3.53918213 8.86254883 4.19287109 C11.38790095 5.74844345 12.66628697 7.09362799 14.1875 9.625 C14.69061231 13.07491297 14.72109582 14.83620618 12.75 17.75 C5.83403236 22.81046413 -1.1448746 24.28304335 -9.5625 24.8125 C-10.52534912 24.88726562 -11.48819824 24.96203125 -12.48022461 25.0390625 C-16.63702637 25.3575004 -20.79688028 25.62428317 -24.95703125 25.89453125 C-26.64892578 26.00861328 -26.64892578 26.00861328 -28.375 26.125 C-29.32503906 26.1765625 -30.27507812 26.228125 -31.25390625 26.28125 C-34.8099399 26.75900719 -37.86967812 27.46790042 -40.1875 30.3125 C-41.12151131 33.76834186 -40.74947066 36.18944093 -39.8125 39.625 C-37.11122527 42.16737622 -35.59246429 42.64588258 -31.89453125 42.546875 C-26.05160774 41.57813169 -20.86524239 38.4981389 -15.625 35.875 C-13.83681599 35.00061793 -12.04861307 34.12627258 -10.25942993 33.25393677 C-8.38670725 32.34012029 -6.5156434 31.42298727 -4.64501953 30.50488281 C-3.36753485 29.87821071 -2.09002817 29.25158345 -0.8125 28.625 C-0.17254089 28.311073 0.46741821 27.997146 1.12677002 27.67370605 C4.94366242 25.8045061 8.76896236 23.95456811 12.60635376 22.12780762 C14.40560632 21.26528906 16.19547878 20.38329021 17.98510742 19.50097656 C28.24345301 14.63139018 28.24345301 14.63139018 34.1875 16.625 C36.70621423 17.65464605 39.03457376 18.69702834 41.4375 19.9375 C42.35402344 20.38125977 42.35402344 20.38125977 43.2890625 20.83398438 C46.88322749 22.65068567 49.06080767 24.22687137 51.1875 27.625 C52.07885742 30.35473633 52.07885742 30.35473633 52.79296875 33.45703125 C53.05400391 34.58560547 53.31503906 35.71417969 53.58398438 36.87695312 C53.84501953 38.05193359 54.10605469 39.22691406 54.375 40.4375 C54.64763672 41.60087891 54.92027344 42.76425781 55.20117188 43.96289062 C57.72961788 55.09692477 57.72961788 55.09692477 57.1875 60.625 C55.5625 63.0625 55.5625 63.0625 53.1875 64.625 C46.2951639 65.22640883 41.74455148 62.43037221 36.1875 58.625 C29.29688351 52.61574144 23.36290644 45.60077303 17.49609375 38.609375 C16.69365234 37.65804687 16.69365234 37.65804687 15.875 36.6875 C15.16923828 35.83865234 15.16923828 35.83865234 14.44921875 34.97265625 C13.20799527 33.49054616 13.20799527 33.49054616 11.1875 32.625 C9.03814601 32.60980163 9.03814601 32.60980163 6.6875 32.875 C5.8934375 32.94203125 5.099375 33.0090625 4.28125 33.078125 C1.80614162 33.47677161 1.80614162 33.47677161 0.1875 36.625 C-0.31257794 40.08286015 -0.31257794 40.08286015 0.1875 43.625 C2.76967235 46.71254717 5.43164663 48.49117643 9.01953125 50.25390625 C9.9719873 50.72626709 10.92444336 51.19862793 11.90576172 51.68530273 C12.92686035 52.18102783 13.94795898 52.67675293 15 53.1875 C16.05719238 53.70836182 17.11438477 54.22922363 18.20361328 54.76586914 C27.44094428 59.30233979 36.72499588 63.74272978 46.0234375 68.15234375 C47.29912598 68.76360107 47.29912598 68.76360107 48.60058594 69.38720703 C50.3963032 70.24642622 52.19681234 71.09567377 54.00097656 71.93701172 C54.90041992 72.36643066 55.79986328 72.79584961 56.7265625 73.23828125 C57.94013428 73.80929565 57.94013428 73.80929565 59.17822266 74.3918457 C62.53868529 76.45426329 63.19899864 78.91811991 64.1875 82.625 C64.38730469 83.32882813 64.58710938 84.03265625 64.79296875 84.7578125 C65.38492715 87.03824284 65.80093008 89.30163586 66.1875 91.625 C66.35507812 92.31207031 66.52265625 92.99914062 66.6953125 93.70703125 C67.32314942 98.04554536 66.45729313 100.20997151 64.046875 103.91796875 C61.70569043 107.00916715 59.20176236 109.95008311 56.66259766 112.87939453 C55.27351435 114.52321209 53.97686846 116.20243313 52.69921875 117.93359375 C51.95285156 118.92488281 51.20648438 119.91617188 50.4375 120.9375 C49.78265625 121.82050781 49.1278125 122.70351562 48.453125 123.61328125 C45.38877312 126.33421438 43.24269557 126.60226908 39.1875 126.625 C36.21736286 125.22229658 35.4082955 124.13434413 34.10546875 121.12890625 C31.8088503 111.88102554 32.43443426 104.27032491 33.93359375 94.9609375 C34.06685059 94.13279541 34.20010742 93.30465332 34.33740234 92.45141602 C34.60515318 90.8200371 34.88227692 89.19015847 35.17041016 87.56225586 C36.58037075 79.61575676 36.58037075 79.61575676 36.1875 71.625 C34.15302105 68.98675492 33.1317516 68.60848196 29.8125 67.625 C26.0946175 67.28498045 26.0946175 67.28498045 23.25 69.625 C20.28834889 73.93285617 20.77572912 77.32371842 21.66137695 82.27337646 C22.33724144 85.4611251 23.06694871 88.63251894 23.8125 91.8046875 C24.35945303 94.20180511 24.90632554 96.5989411 25.453125 98.99609375 C26.31934181 102.7511731 27.18877363 106.50548415 28.06054688 110.25927734 C28.90269233 113.89759396 29.7330371 117.53846202 30.5625 121.1796875 C30.82498535 122.29246063 31.0874707 123.40523376 31.35791016 124.55172729 C34.69071454 139.22648856 34.69071454 139.22648856 32.13354492 145.0078125 C31.64990479 145.58273438 31.16626465 146.15765625 30.66796875 146.75 C30.14009766 147.39324219 29.61222656 148.03648437 29.06835938 148.69921875 C28.50955078 149.33472656 27.95074219 149.97023437 27.375 150.625 C26.82779297 151.29144531 26.28058594 151.95789063 25.71679688 152.64453125 C21.66682505 157.46522498 21.66682505 157.46522498 18.1875 158.625 C13.6490596 158.87613489 9.10842972 158.89577623 4.56396484 158.92016602 C3.06647296 158.93169518 1.56902248 158.95216217 0.07177734 158.98168945 C-2.09566068 159.024427 -4.26188013 159.0405411 -6.4296875 159.05078125 C-8.37270752 159.07265503 -8.37270752 159.07265503 -10.35498047 159.0949707 C-14.38345743 158.5473914 -16.01504221 157.5286945 -18.8125 154.625 C-19.78975843 150.86631374 -19.4458829 148.70732935 -17.48193359 145.35131836 C-11.74488118 137.68841919 -4.90278542 133.66513334 3.375 129.3125 C5.27117306 128.29722052 7.16350084 127.27571487 9.05110168 126.24458313 C10.75262145 125.31774114 12.46428393 124.40958956 14.17651367 123.50268555 C17.35424971 121.52101297 19.70771127 119.42338749 22.1875 116.625 C22.79107856 113.73417636 22.25769969 111.36258263 21.1875 108.625 C19.11586371 106.38199365 19.11586371 106.38199365 16.1875 105.625 C12.4872763 105.81552642 10.65983539 106.2268777 7.80078125 108.63671875 C7.04152344 109.51972656 6.28226562 110.40273437 5.5 111.3125 C5.07557617 111.80089355 4.65115234 112.28928711 4.21386719 112.79248047 C0.53254292 117.08107512 -2.95588988 121.52961118 -6.41577148 125.99755859 C-10.78491992 131.63827356 -15.32021785 137.13407011 -19.87719727 142.62353516 C-23.53908198 147.04433591 -27.09814402 151.51559338 -30.48046875 156.15625 C-32.34598782 158.21324463 -34.20022906 158.57332405 -36.90966797 158.80200195 C-39.50239347 158.86833978 -42.09406797 158.90983181 -44.6875 158.9375 C-45.58597656 158.96650391 -46.48445313 158.99550781 -47.41015625 159.02539062 C-51.4388617 159.06407096 -54.06163305 159.0545169 -57.60546875 157.02734375 C-60.31239693 154.0808644 -62.82684142 151.05778943 -65.25 147.875 C-65.72937012 147.25246338 -66.20874023 146.62992676 -66.70263672 145.98852539 C-67.64875832 144.75805467 -68.59252635 143.52576993 -69.53369141 142.29150391 C-70.61417388 140.88345249 -71.7167977 139.49243298 -72.82421875 138.10546875 C-77.92130552 131.65080438 -77.92130552 131.65080438 -77.8125 127.625 C-76.5625 124.875 -76.5625 124.875 -74.8125 122.625 C-71.87620235 121.64623412 -69.81869412 121.42798465 -66.75 121.375 C-65.43322266 121.33632813 -65.43322266 121.33632813 -64.08984375 121.296875 C-54.31130592 122.27589428 -45.08851328 126.8164156 -36.11523438 130.57226562 C-30.79555914 132.7248784 -26.57056639 134.35048582 -20.8125 133.625 C-18.24911311 132.14506844 -18.24911311 132.14506844 -16.8125 129.625 C-16.08723582 125.8375093 -16.42669667 124.23124641 -18.49853516 120.97558594 C-22.94391018 116.7974471 -29.71384033 117.92188728 -35.3984375 117.953125 C-36.74217696 117.9425345 -38.08589992 117.9296186 -39.42959595 117.91448975 C-42.96156228 117.88032611 -46.49297643 117.87490525 -50.02508545 117.87640381 C-54.30178105 117.87362744 -58.57832469 117.84073139 -62.85488319 117.80833054 C-66.18584009 117.78310892 -69.51616156 117.76518029 -72.84725952 117.76251221 C-88.4628029 117.7131641 -88.4628029 117.7131641 -92.0703125 114.8046875 C-93.99998214 112.42287769 -95.92313609 110.03896809 -97.8125 107.625 C-98.63041016 106.75101563 -98.63041016 106.75101563 -99.46484375 105.859375 C-101.62871167 103.38980829 -102.79172602 101.61437336 -102.86206055 98.26464844 C-102.12851844 91.49789359 -101.03800801 84.89436836 -99.5625 78.25 C-99.37042969 77.29222656 -99.17835938 76.33445312 -98.98046875 75.34765625 C-97.74800305 69.77443084 -96.61843404 66.15725044 -91.8125 62.625 C-88.5 62.1875 -88.5 62.1875 -84.8125 63.625 C-76.24844286 70.76171428 -73.78157608 81.37090833 -70.8125 91.625 C-70.15336114 93.88408763 -69.49102898 96.14184619 -68.81518555 98.39599609 C-68.40841409 99.75949528 -68.01449539 101.12692153 -67.63598633 102.49853516 C-66.45725444 106.50297984 -65.20117425 109.11650088 -61.8125 111.625 C-58.96278787 112.11180303 -56.51759755 111.61075589 -53.8125 110.625 C-51.56949365 108.55336371 -51.56949365 108.55336371 -50.8125 105.625 C-51.05298923 99.86155119 -53.62720444 96.60338584 -57.0625 92.25 C-57.59681641 91.55519531 -58.13113281 90.86039062 -58.68164062 90.14453125 C-62.99698398 84.56824356 -67.45156143 79.1039013 -71.92993164 73.65820312 C-76.46630872 68.12080294 -80.78014726 62.43429032 -85.03125 56.67578125 C-87.74639567 53.00265965 -87.74639567 53.00265965 -90.8125 49.625 C-91.40170098 43.83119036 -90.60088719 38.53327063 -89.3125 32.875 C-88.89484375 30.99554688 -88.89484375 30.99554688 -88.46875 29.078125 C-86.19655901 24.34082115 -83.38428752 22.9502485 -78.8125 20.625 C-77.98540527 20.18349609 -77.15831055 19.74199219 -76.30615234 19.28710938 C-73.64254368 17.89257064 -70.9532202 16.56591447 -68.25 15.25 C-66.8897168 14.55583984 -66.8897168 14.55583984 -65.50195312 13.84765625 C-60.08456128 11.21556594 -56.6817361 9.88196799 -50.8125 11.625 C-48.8125 13.125 -48.8125 13.125 -47.8125 15.625 C-47.72560692 18.72211779 -48.20156427 21.59495585 -48.8125 24.625 C-48.93109375 25.30433594 -49.0496875 25.98367187 -49.171875 26.68359375 C-51.11778842 34.48198921 -56.69395418 40.52764635 -61.44970703 46.80761719 C-67.3853282 54.5305467 -67.3853282 54.5305467 -70.5 63.5625 C-69.66969654 67.26112448 -69.01192148 68.57408879 -65.8125 70.625 C-62.3125 71.29166667 -62.3125 71.29166667 -58.8125 70.625 C-55.19219549 67.76319241 -54.12475466 65.29219843 -53.12084961 60.85009766 C-52.85054428 59.68854156 -52.58023895 58.52698547 -52.30174255 57.33023071 C-52.02556595 56.0791452 -51.74938934 54.82805969 -51.46484375 53.5390625 C-51.16535195 52.23601579 -50.86434795 50.93331581 -50.56190491 49.63095093 C-49.76990053 46.20666262 -48.99402403 42.77894459 -48.22283936 39.34991455 C-46.98862114 33.86866016 -45.73555383 28.39178944 -44.47192574 22.91724777 C-44.03554204 21.01234962 -43.60982202 19.10501864 -43.18431091 17.19766235 C-42.91715775 16.02980194 -42.65000458 14.86194153 -42.37475586 13.65869141 C-42.14477402 12.63595123 -41.91479218 11.61321106 -41.67784119 10.55947876 C-40.22469277 5.63167314 -38.95956528 2.38971019 -34.625 -0.5 C-33.36208207 -1.14084371 -32.09062235 -1.76504458 -30.8125 -2.375 C-30.10996094 -2.73722656 -29.40742188 -3.09945313 -28.68359375 -3.47265625 C-17.66648511 -9.13338058 -10.66038335 -5.13753414 0 0 Z M-23.84765625 44.3828125 C-24.65323975 44.75736572 -25.45882324 45.13191895 -26.28881836 45.51782227 C-29.73130013 47.15798138 -33.15638155 48.83104569 -36.57128906 50.52783203 C-38.33752264 51.39247841 -40.12960392 52.20432767 -41.9296875 52.99609375 C-46.08832672 55.13142197 -47.48591638 56.75632554 -49.15625 61.19921875 C-50.13485331 64.66550202 -50.84585898 68.15856266 -51.47021484 71.70410156 C-51.9216404 74.23749406 -52.50151648 76.7389309 -53.0625 79.25 C-53.54278143 81.41274643 -53.54278143 81.41274643 -53.8125 83.625 C-53.96589844 84.52992187 -54.11929688 85.43484375 -54.27734375 86.3671875 C-53.55395566 91.43698303 -50.43644794 94.36033691 -47.125 98.125 C-46.49916016 98.85847656 -45.87332031 99.59195313 -45.22851562 100.34765625 C-44.00233629 101.78312065 -42.76959034 103.21300638 -41.52978516 104.63671875 C-39.97990715 106.43117518 -38.47536471 108.25354021 -36.98046875 110.09375 C-35.06689142 112.65964116 -35.06689142 112.65964116 -32.8125 113.625 C-27.14586403 113.84493793 -21.48131361 113.72831243 -15.8125 113.625 C-15.12285156 113.61774902 -14.43320313 113.61049805 -13.72265625 113.60302734 C-11.83533213 113.57546494 -9.94872936 113.50743435 -8.0625 113.4375 C-6.97453125 113.40269531 -5.8865625 113.36789063 -4.765625 113.33203125 C1.99786338 111.71273046 6.31091212 103.89881355 10.4375 98.625 C11.07429688 97.8309375 11.71109375 97.036875 12.3671875 96.21875 C12.97304688 95.4453125 13.57890625 94.671875 14.203125 93.875 C14.75258789 93.17890625 15.30205078 92.4828125 15.86816406 91.765625 C18.02669387 88.26340639 18.35464413 85.69579173 17.72192383 81.64233398 C16.82889786 78.11160074 15.92976374 74.58377221 15 71.0625 C14.69513672 69.83080078 14.39027344 68.59910156 14.07617188 67.33007812 C13.76873047 66.14736328 13.46128906 64.96464844 13.14453125 63.74609375 C12.86585205 62.6677124 12.58717285 61.58933105 12.30004883 60.47827148 C10.63270805 56.20216623 8.47286417 54.31745675 4.47021484 52.16113281 C3.45652832 51.72124023 2.4428418 51.28134766 1.3984375 50.828125 C0.29242188 50.34472656 -0.81359375 49.86132812 -1.953125 49.36328125 C-3.10296875 48.87214844 -4.2528125 48.38101563 -5.4375 47.875 C-6.59507812 47.36839844 -7.75265625 46.86179687 -8.9453125 46.33984375 C-16.35119441 42.70589287 -16.35119441 42.70589287 -23.84765625 44.3828125 Z " fill="#EE7C01" transform="translate(263.8125,19.375)"/>
<path d="M0 0 C10.56 0 21.12 0 32 0 C38.30849929 13.14270686 44.33320915 26.38406963 50.22357178 39.71868896 C53.91861174 48.0832085 57.62940057 56.4407353 61.3414917 64.79769897 C62.1964294 66.72257927 63.05112547 68.64756691 63.90557861 70.57266235 C68.6578198 81.27847282 73.42959522 91.974885 78.25390625 102.6484375 C78.67283142 103.575923 79.09175659 104.50340851 79.52337646 105.45899963 C81.52022662 109.87867801 83.52091713 114.29655277 85.52783203 118.71166992 C86.24131865 120.28819996 86.95470343 121.86477608 87.66796875 123.44140625 C87.99301895 124.15279755 88.31806915 124.86418884 88.65296936 125.59713745 C90.07383981 128.74550667 91.15814373 131.6325749 92 135 C80.78 135 69.56 135 58 135 C55.2775 128.626875 55.2775 128.626875 52.5 122.125 C51.63858398 120.11623779 51.63858398 120.11623779 50.75976562 118.06689453 C50.31310547 117.01614746 49.86644531 115.96540039 49.40625 114.8828125 C48.94541016 113.80402832 48.48457031 112.72524414 48.00976562 111.61376953 C47 109 47 109 47 107 C26.54 107.33 6.08 107.66 -15 108 C-20.445 121.365 -20.445 121.365 -26 135 C-36.89 135 -47.78 135 -59 135 C-58.30198654 131.50993268 -57.83635415 129.29144816 -56.42797852 126.22753906 C-56.10503311 125.51772888 -55.78208771 124.8079187 -55.44935608 124.07659912 C-55.09610764 123.31397766 -54.74285919 122.5513562 -54.37890625 121.765625 C-54.00781235 120.95256897 -53.63671844 120.13951294 -53.25437927 119.30181885 C-52.45014442 117.54047693 -51.64366692 115.78015767 -50.83520508 114.02075195 C-48.65029722 109.26408223 -46.48340516 104.49922419 -44.31640625 99.734375 C-43.64733749 98.2642395 -43.64733749 98.2642395 -42.9647522 96.7644043 C-38.55178296 87.04929366 -34.26637303 77.2801567 -30 67.5 C-22.8112827 51.03174702 -15.45576162 34.64324704 -8.015625 18.28710938 C-7.62733521 17.43276306 -7.23904541 16.57841675 -6.83898926 15.69818115 C-6.11509421 14.10607745 -5.3901509 12.51444977 -4.66394043 10.92340088 C-4.17963562 9.85868561 -4.17963562 9.85868561 -3.68554688 8.77246094 C-3.2673468 7.85542389 -3.2673468 7.85542389 -2.84069824 6.91986084 C-1.8405328 4.63583267 -0.92603088 2.3150772 0 0 Z M15 34 C12.61056151 39.70878141 10.22628747 45.41968218 7.84667969 51.13256836 C7.03720836 53.07390836 6.22635289 55.01467184 5.4140625 56.95483398 C4.24370837 59.75091901 3.07842175 62.5490704 1.9140625 65.34765625 C1.55253082 66.2083522 1.19099915 67.06904816 0.81851196 67.95582581 C0.47831024 68.77614792 0.13810852 69.59647003 -0.21240234 70.44165039 C-0.65874527 71.51087486 -0.65874527 71.51087486 -1.11410522 72.60169983 C-2.24963505 75.67581366 -3.09970219 78.84895768 -4 82 C9.2 82 22.4 82 36 82 C33.74604387 75.11864765 33.74604387 75.11864765 31.19067383 68.39819336 C30.87056839 67.61806381 30.55046295 66.83793427 30.22065735 66.03416443 C29.88616074 65.2275386 29.55166412 64.42091278 29.20703125 63.58984375 C28.85613937 62.73693253 28.5052475 61.8840213 28.14372253 61.00526428 C27.03612316 58.31484205 25.9243885 55.62615206 24.8125 52.9375 C24.055063 51.09972291 23.29789899 49.26183329 22.54101562 47.42382812 C20.697161 42.9479127 18.8495989 38.47354457 17 34 C16.34 34 15.68 34 15 34 Z " fill="#003D7B" transform="translate(409,27)"/>
<path d="M0 0 C-6.15034169 16.8929385 -6.15034169 16.8929385 -10 24 C-13.32875896 23.3068651 -16.41889291 22.10947305 -19.58178711 20.87939453 C-33.08252105 15.64189241 -49.13821496 11.16633007 -63.26953125 17.09765625 C-67.59697074 19.35417661 -70.00648773 21.17982669 -71.5 25.875 C-72.07113608 28.88746286 -71.95214402 30.17775079 -71.125 33.25 C-66.20110044 39.62210531 -57.72291872 41.07319908 -50.25 42.875 C-48.20768693 43.39067583 -46.16603022 43.90895734 -44.125 44.4296875 C-43.10277344 44.68975586 -42.08054687 44.94982422 -41.02734375 45.21777344 C-6.56225847 54.12310676 -6.56225847 54.12310676 1.27734375 67.1171875 C6.29832337 76.87325466 6.88864553 89.47728504 3.5625 100 C-1.5230152 111.65729012 -11.8086621 118.99157688 -23.1875 123.75 C-46.5878069 132.19257012 -74.43951098 128.61996111 -97 119 C-100.4956345 117.20119625 -103.79283058 115.27241652 -107 113 C-106.39768601 109.43330196 -105.43842499 106.42191371 -103.93359375 103.13671875 C-103.53076172 102.25048828 -103.12792969 101.36425781 -102.71289062 100.45117188 C-102.29201172 99.53916016 -101.87113281 98.62714844 -101.4375 97.6875 C-100.80038086 96.29047852 -100.80038086 96.29047852 -100.15039062 94.86523438 C-99.10493657 92.5746328 -98.05468244 90.28636341 -97 88 C-94.19649838 89.06249029 -91.54142649 90.23185659 -88.86328125 91.5859375 C-73.30782415 99.42356055 -55.24790159 104.22524436 -37.90234375 99.703125 C-33.96580375 98.24814102 -30.93686393 95.93686393 -28 93 C-26.97982868 89.54711247 -26.88599871 87.42969716 -27.8125 83.9375 C-33.35384229 76.49626893 -43.92552601 74.68527268 -52.5 72.5625 C-91.1181505 62.53213162 -91.1181505 62.53213162 -101 48 C-103.83437333 42.33758714 -104.5510879 37.02742541 -104.5 30.75 C-104.49033203 29.50210693 -104.49033203 29.50210693 -104.48046875 28.22900391 C-104.17299516 17.79715329 -100.64109823 9.55644621 -93.34765625 2.03125 C-69.02522598 -19.01311562 -26.17195355 -16.1526368 0 0 Z " fill="#003D7B" transform="translate(132,37)"/>
<path d="M0 0 C10.56 0 21.12 0 32 0 C32 44.55 32 89.1 32 135 C21.44 135 10.88 135 0 135 C0 90.45 0 45.9 0 0 Z " fill="#003D7B" transform="translate(514,27)"/>
<path d="M0 0 C3.24952748 -0.14546783 6.49821713 -0.2341168 9.75 -0.3125 C10.67039062 -0.35439453 11.59078125 -0.39628906 12.5390625 -0.43945312 C19.37874128 -0.56336035 19.37874128 -0.56336035 22.640625 2.39453125 C24 5 24 5 24 7 C24.66 7 25.32 7 26 7 C26.309375 6.21625 26.61875 5.4325 26.9375 4.625 C28 2 28 2 29 0 C30.65 0 32.3 0 34 0 C33.35990432 3.21502602 32.18839348 5.57737126 30.5 8.375 C28.46167496 11.92885201 27.31892742 14.85394349 27 19 C25.35 19 23.7 19 22 19 C21.87882812 18.40832031 21.75765625 17.81664062 21.6328125 17.20703125 C20.73255357 12.96196415 19.79543379 8.97560339 18 5 C15.69 5 13.38 5 11 5 C11 9.62 11 14.24 11 19 C9.35 19 7.7 19 6 19 C6 14.38 6 9.76 6 5 C4.02 5 2.04 5 0 5 C0 3.35 0 1.7 0 0 Z " fill="#023B7A" transform="translate(91,199)"/>
<path d="M0 0 C5 1 5 1 6.58203125 2.84765625 C6.98808594 3.57855469 7.39414062 4.30945313 7.8125 5.0625 C8.23144531 5.79597656 8.65039062 6.52945313 9.08203125 7.28515625 C9.38496094 7.85105469 9.68789063 8.41695312 10 9 C12.12625867 6.99420924 13.38048516 5.37404054 14.9375 2.8125 C15.618125 1.884375 16.29875 0.95625 17 0 C18.32 0 19.64 0 21 0 C21 6.27 21 12.54 21 19 C19.35 19 17.7 19 16 19 C15.67 17.02 15.34 15.04 15 13 C13.515 15.475 13.515 15.475 12 18 C10.125 17.75 10.125 17.75 8 17 C6.75 14.9375 6.75 14.9375 6 13 C5.67 14.98 5.34 16.96 5 19 C3.35 19 1.7 19 0 19 C0 12.73 0 6.46 0 0 Z " fill="#023D7B" transform="translate(320,199)"/>
<path d="M0 0 C4.37773412 1.65381067 6.28935034 5.25609897 8.8125 9.0625 C9.1425 6.0925 9.4725 3.1225 9.8125 0.0625 C11.4625 0.0625 13.1125 0.0625 14.8125 0.0625 C14.8125 6.3325 14.8125 12.6025 14.8125 19.0625 C9.8125 19.0625 9.8125 19.0625 8.01171875 17.53125 C7.51285156 16.8815625 7.01398437 16.231875 6.5 15.5625 C5.98824219 14.9128125 5.47648438 14.263125 4.94921875 13.59375 C4.38654297 12.83578125 4.38654297 12.83578125 3.8125 12.0625 C3.4825 14.3725 3.1525 16.6825 2.8125 19.0625 C0.8325 19.0625 -1.1475 19.0625 -3.1875 19.0625 C-3.21433987 16.08327407 -3.23426037 13.10428705 -3.25 10.125 C-3.25837891 9.27486328 -3.26675781 8.42472656 -3.27539062 7.54882812 C-3.27861328 6.73994141 -3.28183594 5.93105469 -3.28515625 5.09765625 C-3.29039307 4.3487915 -3.29562988 3.59992676 -3.30102539 2.82836914 C-3.12873707 0.14845215 -2.67458083 0.0764166 0 0 Z " fill="#013A79" transform="translate(521.1875,198.9375)"/>
<path d="M0 0 C4.04212164 2.47018545 5.67811019 3.93965709 7.0625 8.5 C6.99187106 12.45522051 6.51464223 13.98242933 4 17 C1.24116669 19.16232881 -0.51542103 19.93942763 -4 20.375 C-7.45001843 19.9437477 -9.26337663 19.12848485 -12 17 C-14.32826375 13.78477863 -14.39711181 10.89169575 -14 7 C-12.73896101 4.22571423 -11.68910086 2.51682565 -9.25 0.6875 C-5.9260257 -0.32815881 -3.46313738 -0.41796486 0 0 Z M-7.9375 6.6875 C-9.30816224 9.01402222 -9.30816224 9.01402222 -8.25 11.6875 C-7.1977169 13.89755147 -7.1977169 13.89755147 -6 15 C-3.54190002 15.2500773 -3.54190002 15.2500773 -1 15 C1.31563087 13.11499729 1.31563087 13.11499729 1.25 10 C1.31563087 6.88500271 1.31563087 6.88500271 -1 5 C-4.2129351 4.50570229 -5.45193577 4.52265374 -7.9375 6.6875 Z " fill="#023C7A" transform="translate(247,199)"/>
<path d="M0 0 C2.85746217 1.26998319 4.48137263 2.2838003 6.3125 4.8125 C7.58476509 8.86061621 7.50914951 11.87987109 5.75 15.75 C3.87075601 18.16617084 2.80799307 18.8990243 0 20 C-4.25899746 20.22494705 -7.90948332 19.70883584 -11.5 17.375 C-13.53106945 14.15914004 -13.93343405 11.79425893 -14 8 C-11.08614595 1.25212745 -7.23934947 -0.76203679 0 0 Z M-8 7 C-8.33333333 10 -8.33333333 10 -8 13 C-6.17528109 15.21896136 -6.17528109 15.21896136 -3.5625 15.375 C-0.90177389 15.22148113 -0.90177389 15.22148113 0.9375 13.3125 C2.30816224 10.98597778 2.30816224 10.98597778 1.25 8.3125 C0.1977169 6.10244853 0.1977169 6.10244853 -1 5 C-4.961168 4.60909667 -4.961168 4.60909667 -8 7 Z " fill="#013B79" transform="translate(146,199)"/>
<path d="M0 0 C2.85746217 1.26998319 4.48137263 2.2838003 6.3125 4.8125 C7.58476509 8.86061621 7.50914951 11.87987109 5.75 15.75 C3.87075601 18.16617084 2.80799307 18.8990243 0 20 C-4.25899746 20.22494705 -7.90948332 19.70883584 -11.5 17.375 C-13.53106945 14.15914004 -13.93343405 11.79425893 -14 8 C-11.08614595 1.25212745 -7.23934947 -0.76203679 0 0 Z M-8 7 C-8.33333333 10 -8.33333333 10 -8 13 C-6.17528109 15.21896136 -6.17528109 15.21896136 -3.5625 15.375 C-0.90177389 15.22148113 -0.90177389 15.22148113 0.9375 13.3125 C2.30816224 10.98597778 2.30816224 10.98597778 1.25 8.3125 C0.1977169 6.10244853 0.1977169 6.10244853 -1 5 C-4.961168 4.60909667 -4.961168 4.60909667 -8 7 Z " fill="#023C7A" transform="translate(39,199)"/>
<path d="M0 0 C5.625 1.125 5.625 1.125 8.3125 4.5625 C8.82425781 5.20316406 9.33601563 5.84382812 9.86328125 6.50390625 C10.23839844 6.99761719 10.61351562 7.49132812 11 8 C11.33 5.36 11.66 2.72 12 0 C13.65 0 15.3 0 17 0 C17 6.27 17 12.54 17 19 C12 19 12 19 10.19921875 17.46875 C9.70035156 16.8190625 9.20148438 16.169375 8.6875 15.5 C8.17574219 14.8503125 7.66398437 14.200625 7.13671875 13.53125 C6.57404297 12.77328125 6.57404297 12.77328125 6 12 C5.67 14.31 5.34 16.62 5 19 C3.35 19 1.7 19 0 19 C0 12.73 0 6.46 0 0 Z " fill="#013C7A" transform="translate(388,199)"/>
<path d="M0 0 C11.27272727 0 11.27272727 0 15 2 C16.5625 4.75 16.5625 4.75 17 8 C16.484375 9.010625 15.96875 10.02125 15.4375 11.0625 C14.7259375 12.5165625 14.7259375 12.5165625 14 14 C15.17274994 16.87391821 15.17274994 16.87391821 17 19 C14.1875 19.25 14.1875 19.25 11 19 C9.3125 17.0625 9.3125 17.0625 8 15 C7.01 14.67 6.02 14.34 5 14 C5 15.65 5 17.3 5 19 C3.35 19 1.7 19 0 19 C0 12.73 0 6.46 0 0 Z M5 5 C5 6.65 5 8.3 5 10 C6.65 10 8.3 10 10 10 C10.59070014 8.05396726 10.59070014 8.05396726 11 6 C9.93354885 4.70366379 9.93354885 4.70366379 7.4375 4.9375 C6.633125 4.958125 5.82875 4.97875 5 5 Z " fill="#013C7A" transform="translate(256,199)"/>
<path d="M0 0 C1.93166016 0.01740234 1.93166016 0.01740234 3.90234375 0.03515625 C5.19269531 0.04417969 6.48304688 0.05320313 7.8125 0.0625 C8.81152344 0.07410156 9.81054688 0.08570313 10.83984375 0.09765625 C10.83984375 1.74765625 10.83984375 3.39765625 10.83984375 5.09765625 C7.86984375 5.09765625 4.89984375 5.09765625 1.83984375 5.09765625 C1.83984375 6.08765625 1.83984375 7.07765625 1.83984375 8.09765625 C4.47984375 8.09765625 7.11984375 8.09765625 9.83984375 8.09765625 C9.83984375 9.41765625 9.83984375 10.73765625 9.83984375 12.09765625 C7.19984375 12.09765625 4.55984375 12.09765625 1.83984375 12.09765625 C1.83984375 13.08765625 1.83984375 14.07765625 1.83984375 15.09765625 C4.80984375 15.09765625 7.77984375 15.09765625 10.83984375 15.09765625 C10.83984375 16.41765625 10.83984375 17.73765625 10.83984375 19.09765625 C5.88984375 19.09765625 0.93984375 19.09765625 -4.16015625 19.09765625 C-4.18699612 16.11843032 -4.20691662 13.1394433 -4.22265625 10.16015625 C-4.23103516 9.31001953 -4.23941406 8.45988281 -4.24804688 7.58398438 C-4.25126953 6.77509766 -4.25449219 5.96621094 -4.2578125 5.1328125 C-4.26304932 4.38394775 -4.26828613 3.63508301 -4.27368164 2.86352539 C-4.06953603 -0.31192666 -3.23150136 0.09986098 0 0 Z " fill="#013A78" transform="translate(428.16015625,198.90234375)"/>
<path d="M0 0 C1.93166016 0.01740234 1.93166016 0.01740234 3.90234375 0.03515625 C5.19269531 0.04417969 6.48304687 0.05320313 7.8125 0.0625 C8.81152344 0.07410156 9.81054688 0.08570313 10.83984375 0.09765625 C10.83984375 1.74765625 10.83984375 3.39765625 10.83984375 5.09765625 C7.86984375 5.09765625 4.89984375 5.09765625 1.83984375 5.09765625 C1.83984375 6.08765625 1.83984375 7.07765625 1.83984375 8.09765625 C4.47984375 8.09765625 7.11984375 8.09765625 9.83984375 8.09765625 C9.83984375 9.41765625 9.83984375 10.73765625 9.83984375 12.09765625 C7.19984375 12.09765625 4.55984375 12.09765625 1.83984375 12.09765625 C1.83984375 13.08765625 1.83984375 14.07765625 1.83984375 15.09765625 C4.80984375 15.09765625 7.77984375 15.09765625 10.83984375 15.09765625 C10.83984375 16.41765625 10.83984375 17.73765625 10.83984375 19.09765625 C5.88984375 19.09765625 0.93984375 19.09765625 -4.16015625 19.09765625 C-4.18699612 16.11843032 -4.20691662 13.1394433 -4.22265625 10.16015625 C-4.23103516 9.31001953 -4.23941406 8.45988281 -4.24804688 7.58398438 C-4.25126953 6.77509766 -4.25449219 5.96621094 -4.2578125 5.1328125 C-4.26304932 4.38394775 -4.26828613 3.63508301 -4.27368164 2.86352539 C-4.06953603 -0.31192666 -3.23150136 0.09986098 0 0 Z " fill="#013977" transform="translate(79.16015625,198.90234375)"/>
<path d="M0 0 C2.4375 1 2.4375 1 4 2 C3.625 3.9375 3.625 3.9375 3 6 C-0.06890187 7.53445094 -2.70094266 6.54984289 -6 6 C-7.19838209 8.32854463 -7.19838209 8.32854463 -8 11 C-6.33045181 14.22404978 -6.33045181 14.22404978 -3.375 14.6875 C-2.59125 14.790625 -1.8075 14.89375 -1 15 C-1 13.02 -1 11.04 -1 9 C0.65 9 2.3 9 4 9 C4 11.97 4 14.94 4 18 C0.16730743 19.80362003 -2.76849335 20.44078194 -7 20 C-10.788383 18.27800773 -12.47957937 16.84251759 -14 13 C-14.26649565 9.84646813 -13.94263547 7.02197843 -13 4 C-8.91913031 0.01629387 -5.58900286 -0.62100032 0 0 Z " fill="#033C7A" transform="translate(227,199)"/>
<path d="M0 0 C4.95 0 9.9 0 15 0 C15 1.65 15 3.3 15 5 C11.7 5 8.4 5 5 5 C5 5.99 5 6.98 5 8 C7.97 8 10.94 8 14 8 C14 9.32 14 10.64 14 12 C11.03 12 8.06 12 5 12 C5 12.99 5 13.98 5 15 C8.3 15 11.6 15 15 15 C15 16.32 15 17.64 15 19 C10.05 19 5.1 19 0 19 C0 12.73 0 6.46 0 0 Z " fill="#013A79" transform="translate(558,199)"/>
<path d="M0 0 C4.95 0 9.9 0 15 0 C15 1.65 15 3.3 15 5 C11.7 5 8.4 5 5 5 C5 5.99 5 6.98 5 8 C7.97 8 10.94 8 14 8 C14 9.32 14 10.64 14 12 C11.03 12 8.06 12 5 12 C5 12.99 5 13.98 5 15 C8.3 15 11.6 15 15 15 C15 16.32 15 17.64 15 19 C10.05 19 5.1 19 0 19 C0 12.73 0 6.46 0 0 Z " fill="#023B79" transform="translate(501,199)"/>
<path d="M0 0 C1.65 0 3.3 0 5 0 C5 2.64 5 5.28 5 8 C7.64 8 10.28 8 13 8 C13 5.36 13 2.72 13 0 C14.65 0.33 16.3 0.66 18 1 C18 6.94 18 12.88 18 19 C16.35 19 14.7 19 13 19 C13 16.69 13 14.38 13 12 C10.36 12 7.72 12 5 12 C5 14.31 5 16.62 5 19 C3.35 19 1.7 19 0 19 C0 12.73 0 6.46 0 0 Z " fill="#013C7A" transform="translate(299,199)"/>
<path d="M0 0 C2.875 1.5 2.875 1.5 5 3 C3.68 4.32 2.36 5.64 1 7 C0.67 6.67 0.34 6.34 0 6 C-3 5.83333333 -3 5.83333333 -6 6 C-7.35618499 7.12534105 -7.35618499 7.12534105 -7.0625 10.0625 C-7.041875 11.031875 -7.02125 12.00125 -7 13 C-4.69 13.66 -2.38 14.32 0 15 C0 13.02 0 11.04 0 9 C1.32 9 2.64 9 4 9 C4 11.97 4 14.94 4 18 C-0.87368904 20.43684452 -3.80977186 20.28801617 -9 19 C-11.68262097 17.32336189 -12.60963734 16.13714339 -13.62890625 13.16796875 C-14.27289112 10.13369769 -14.51695907 7.98116722 -13.04296875 5.18359375 C-9.24646059 0.42362129 -5.90024923 -0.47201994 0 0 Z " fill="#033C7A" transform="translate(494,199)"/>
<path d="M0 0 C2.265625 0.0390625 2.265625 0.0390625 5 1 C6.51394328 3.49741037 7.64453351 5.70800013 8.75 8.375 C9.05292969 9.06078125 9.35585937 9.7465625 9.66796875 10.453125 C10.90129251 13.27058461 12.02722184 16.08166552 13 19 C11.02 19 9.04 19 7 19 C6.67 18.34 6.34 17.68 6 17 C4.10466658 16.53476937 4.10466658 16.53476937 1.9375 16.375 C0.638125 16.25125 -0.66125 16.1275 -2 16 C-2.33 16.99 -2.66 17.98 -3 19 C-4.65 19 -6.3 19 -8 19 C-7.38188466 14.44684052 -5.53234107 10.71540233 -3.4375 6.6875 C-2.9434668 5.71973633 -2.9434668 5.71973633 -2.43945312 4.73242188 C-1.63175745 3.15214772 -0.81662387 1.57567895 0 0 Z M1 8 C0.67 8.99 0.34 9.98 0 11 C1.32 10.67 2.64 10.34 4 10 C3.67 9.34 3.34 8.68 3 8 C2.34 8 1.68 8 1 8 Z " fill="#013B79" transform="translate(185,199)"/>
<path d="M0 0 C0.33 0.66 0.66 1.32 1 2 C0.67 2.99 0.34 3.98 0 5 C-2.97 4.67 -5.94 4.34 -9 4 C-9 4.66 -9 5.32 -9 6 C-6.98177083 6.45572917 -4.96354167 6.91145833 -2.9453125 7.3671875 C-1 8 -1 8 1 10 C1.4375 12.9375 1.4375 12.9375 1 16 C-0.9375 17.9375 -0.9375 17.9375 -4 19 C-7.05558328 18.93868395 -9.99532807 18.54332848 -13 18 C-13.33 16.68 -13.66 15.36 -14 14 C-10.30581799 12.768606 -7.7943739 13.35567236 -4 14 C-4 13.34 -4 12.68 -4 12 C-6.01822917 11.54427083 -8.03645833 11.08854167 -10.0546875 10.6328125 C-12 10 -12 10 -14 8 C-14.4375 5.0625 -14.4375 5.0625 -14 2 C-10.05314251 -1.94685749 -5.07805676 -1.39541642 0 0 Z " fill="#023B7A" transform="translate(23,200)"/>
<path d="M0 0 C1.265625 2.0625 1.265625 2.0625 2 4 C0.02 4.99 0.02 4.99 -2 6 C-2.33 5.67 -2.66 5.34 -3 5 C-4.66617115 4.95936168 -6.33388095 4.957279 -8 5 C-9.19838209 7.32854463 -9.19838209 7.32854463 -10 10 C-9.01 11.485 -9.01 11.485 -8 13 C-5.58380177 13.25030977 -5.58380177 13.25030977 -3 13 C-1.68 13 -0.36 13 1 13 C1 14.32 1 15.64 1 17 C-2.41748222 19.10306598 -5.02085525 19.40603518 -9 19 C-12.788383 17.27800773 -14.47957937 15.84251759 -16 12 C-16.26665846 8.8445416 -15.93125865 6.0265906 -15 3 C-10.7932047 -1.41713507 -5.65163602 -2.17022823 0 0 Z " fill="#023B79" transform="translate(554,200)"/>
<path d="M0 0 C1.265625 2.0625 1.265625 2.0625 2 4 C0.02 4.99 0.02 4.99 -2 6 C-2.33 5.67 -2.66 5.34 -3 5 C-4.66617115 4.95936168 -6.33388095 4.957279 -8 5 C-9.19838209 7.32854463 -9.19838209 7.32854463 -10 10 C-9.01 11.485 -9.01 11.485 -8 13 C-5.58380177 13.25030977 -5.58380177 13.25030977 -3 13 C-1.68 13 -0.36 13 1 13 C1 14.32 1 15.64 1 17 C-2.41748222 19.10306598 -5.02085525 19.40603518 -9 19 C-12.788383 17.27800773 -14.47957937 15.84251759 -16 12 C-16.26665846 8.8445416 -15.93125865 6.0265906 -15 3 C-10.7932047 -1.41713507 -5.65163602 -2.17022823 0 0 Z " fill="#023C79" transform="translate(368,200)"/>
<path d="M0 0 C1.265625 2.0625 1.265625 2.0625 2 4 C0.02 4.99 0.02 4.99 -2 6 C-2.33 5.67 -2.66 5.34 -3 5 C-4.66617115 4.95936168 -6.33388095 4.957279 -8 5 C-9.19838209 7.32854463 -9.19838209 7.32854463 -10 10 C-9.01 11.485 -9.01 11.485 -8 13 C-5.58380177 13.25030977 -5.58380177 13.25030977 -3 13 C-1.68 13 -0.36 13 1 13 C1 14.32 1 15.64 1 17 C-2.41748222 19.10306598 -5.02085525 19.40603518 -9 19 C-12.788383 17.27800773 -14.47957937 15.84251759 -16 12 C-16.26665846 8.8445416 -15.93125865 6.0265906 -15 3 C-10.7932047 -1.41713507 -5.65163602 -2.17022823 0 0 Z " fill="#033C79" transform="translate(63,200)"/>
<path d="M0 0 C4.95 0 9.9 0 15 0 C15 1.65 15 3.3 15 5 C11.7 5 8.4 5 5 5 C5 6.32 5 7.64 5 9 C7.97 9 10.94 9 14 9 C14 10.32 14 11.64 14 13 C11.03 13 8.06 13 5 13 C5 14.98 5 16.96 5 19 C3.35 19 1.7 19 0 19 C0 12.73 0 6.46 0 0 Z " fill="#013B79" transform="translate(155,199)"/>
<path d="M0 0 C5.61 0 11.22 0 17 0 C17 1.65 17 3.3 17 5 C15.02 5 13.04 5 11 5 C11 9.62 11 14.24 11 19 C9.35 19 7.7 19 6 19 C6 14.38 6 9.76 6 5 C4.02 5 2.04 5 0 5 C0 3.35 0 1.7 0 0 Z " fill="#023C7A" transform="translate(281,199)"/>
<path d="M0 0 C5.28 0 10.56 0 16 0 C16 1.65 16 3.3 16 5 C14.02 5 12.04 5 10 5 C10 9.62 10 14.24 10 19 C8.35 19 6.7 19 5 19 C5 14.38 5 9.76 5 5 C3.02 5 1.04 5 -1 5 C-0.67 3.35 -0.34 1.7 0 0 Z " fill="#013B79" transform="translate(407,199)"/>
<path d="M0 0 C1.65 0.33 3.3 0.66 5 1 C5 5.62 5 10.24 5 15 C7.97 15 10.94 15 14 15 C14 16.32 14 17.64 14 19 C9.05 19 4.1 19 -1 19 C-1.02683987 16.02077407 -1.04676037 13.04178705 -1.0625 10.0625 C-1.07087891 9.21236328 -1.07925781 8.36222656 -1.08789062 7.48632812 C-1.09111328 6.67744141 -1.09433594 5.86855469 -1.09765625 5.03515625 C-1.10289307 4.2862915 -1.10812988 3.53742676 -1.11352539 2.76586914 C-1 1 -1 1 0 0 Z " fill="#003A78" transform="translate(458,199)"/>
<path d="M0 0 C1.65 0 3.3 0 5 0 C5 4.95 5 9.9 5 15 C7.97 15 10.94 15 14 15 C14 16.32 14 17.64 14 19 C9.38 19 4.76 19 0 19 C0 12.73 0 6.46 0 0 Z " fill="#013C7A" transform="translate(442,199)"/>
<path d="M0 0 C2.475 0.495 2.475 0.495 5 1 C5 5.62 5 10.24 5 15 C7.97 15 10.94 15 14 15 C14 16.32 14 17.64 14 19 C9.38 19 4.76 19 0 19 C0 12.73 0 6.46 0 0 Z " fill="#023C7A" transform="translate(199,199)"/>
<path d="M0 0 C1.65 0 3.3 0 5 0 C5 6.27 5 12.54 5 19 C3.35 19 1.7 19 0 19 C0 12.73 0 6.46 0 0 Z " fill="#033D7B" transform="translate(473,199)"/>
<path d="M0 0 C1.65 0 3.3 0 5 0 C5 6.27 5 12.54 5 19 C3.35 19 1.7 19 0 19 C0 12.73 0 6.46 0 0 Z " fill="#033D7B" transform="translate(345,199)"/>
<path d="M0 0 C1.65 0 3.3 0 5 0 C5 6.27 5 12.54 5 19 C3.35 19 1.7 19 0 19 C0 12.73 0 6.46 0 0 Z " fill="#023D7B" transform="translate(275,199)"/>
<path d="M0 0 C1.65 0 3.3 0 5 0 C5 6.27 5 12.54 5 19 C3.35 19 1.7 19 0 19 C0 12.73 0 6.46 0 0 Z " fill="#033D7B" transform="translate(67,199)"/>
<path d="M0 0 C1.32 0 2.64 0 4 0 C4 6.27 4 12.54 4 19 C2.35 19 0.7 19 -1 19 C-1.02683987 16.02077407 -1.04676037 13.04178705 -1.0625 10.0625 C-1.07087891 9.21236328 -1.07925781 8.36222656 -1.08789062 7.48632812 C-1.09111328 6.67744141 -1.09433594 5.86855469 -1.09765625 5.03515625 C-1.10289307 4.2862915 -1.10812988 3.53742676 -1.11352539 2.76586914 C-1 1 -1 1 0 0 Z " fill="#023B7A" transform="translate(380,199)"/>
</svg>
